/* XPM */
static char *_cd8f17daca64d2bcd06da94423d83c2[] = {
/* columns rows colors chars-per-pixel */
"64 62 75 1 ",
"  c gray33",
". c #202020",
"X c #484848",
"o c #005C9C",
"O c #0000BC",
"+ c #0000B0",
"@ c #00007C",
"# c gray22",
"$ c #4C4C4C",
"% c gray25",
"& c #340058",
"* c #0000E0",
"= c #0000D4",
"- c #0000C8",
"; c #7C7C7C",
": c gray44",
"> c #0000A4",
", c #0000A8",
"< c #000098",
"1 c #989898",
"2 c #000064",
"3 c #000088",
"4 c #646464",
"5 c gray55",
"6 c #000070",
"7 c #DC8854",
"8 c #C87C4C",
"9 c #000058",
"0 c #FC9C60",
"q c #FCB080",
"w c #BC7848",
"e c #282828",
"r c #00004C",
"t c #000040",
"y c #000034",
"u c #FCB890",
"i c #FCBC9C",
"p c #D08050",
"a c #00002C",
"s c #FCC4A4",
"d c #2C2C2C",
"f c #F0945C",
"g c #A86840",
"h c #FCA470",
"j c #B47044",
"k c #9C6038",
"l c #885830",
"z c #80502C",
"x c #382C14",
"c c #905C34",
"v c #5C4020",
"b c #FCD4BC",
"n c #E88C58",
"m c #744C28",
"M c gray11",
"N c gray19",
"B c #543C1C",
"V c #A0643C",
"C c #483818",
"Z c gainsboro",
"A c #D40000",
"S c #D0D0D0",
"D c #7C0000",
"F c #C0C0C0",
"G c #A80000",
"H c #980000",
"J c #A40000",
"K c #FC0000",
"L c #880000",
"P c #700000",
"I c #640000",
"U c #4C0000",
"Y c #280040",
"T c #6C4824",
"R c black",
/* pixels */
"                   .....    XXXXXXXX                            ",
" oOOOOOOOO+oooooooooo@#. X$oooooooooo%#%  XooooooX&%%%XXXXXXXXX ",
" O*=------O;;;;;;;;;;;;;;:::::::::::::::::::::::::::::>OOOO++,><",
" O=-,,,,++>;XXXXXXXX##################................>-=-------",
" +-+>><<>><;X111111111111111111111111111111111111111 .@>,,,,,,,,",
" ,O,>><<<<<;X111111111111111111111111111111111111111 .23<<<<<<<<",
" <+>>><<<<<;X111111111111111111111111111111111111111 .2<<>><<<<<",
" <,><<<<<<<;X1111111111111;4XXXXXXX;5111111111111111 .2<<>>><<<<",
" 3,><<<<<<<;X111111111111 XX.........XX;1111111111114.2<<><<<<<<",
".6,><<><<<<;X11111111111 X..## #####...X1111111111114.23<<333333",
".2><<<<<<<<;X111111111178:###  5; #X ##..111111111114.2@@6622229",
".23333333<<;X11111111110qqq:8w:;54e4:4#e.X11111111114.r99rrrrtty",
"#r29922226@;#1111111117quuiq:pw  #eX XXe..41111111114.ytyya.....",
"#....yttrr9;#1111111110quusq:p####e####e..X1111111114...........",
" #......aad;#111111110qqusqqqf####e####e..e1111111114..ee#####X ",
"<3@29##....;#111111118gwhsqqqqjkklz###e...e1111111114.      63<>",
"---+,<3@62&;#111111111xxlwsqquhfggggz#...ee111111111:.d#  3<+---",
"======---Oo;#11111111u8Xwhfqshff7ffgcv...eX111111111:.t# 3+----O",
"+O---==*==O;#1111111ubq7hqqqhffn0vgfvv..eX:111111111:.t# >-=-O,,",
">>,,,,OOOOo;#111111sbsh07uqhffn7hpzhvv..e:1111111111:.t# ,=-+>>>",
"<<<<<>,>>><;#111111nwww807000n77pgfwvv.eX11111111111:.t# +=O><<<",
"<<<<<>>>><<;#11111111.vh7h00fn780hpmvv.e:11111111111:.y. +-+<<<<",
"<<<<<>><<><;#11111111vkqhfhfn8wgplmmmvvX111111111111:.y.XO-,<<<<",
"<<<<<<<<<<<;#11111111u00qhff8ggkw7ccmvv:111111111111:.y.XO=,<<<<",
"33333<<<<<<;#11111111phfqh0n8gkkjh7wlvv1111111111111:.y.XO-><333",
"22226@33333;#11111111huh707wkckjhhhfwgmm111111111111:.y.X,,32222",
"rrrrrr99992;#11111111fh7wgkcckj7hhwwczmm;51111111111:.M.X@69rrrr",
".....yyyyyN;#11111111111klllkj7hwwccczzBmm:511111111:...........",
"...........;#1111111111111jkjjhwcckclmBzzmmm:5111111:.##........",
"  X##eee...:#111111111115pjjphcckkkmBzVVVcczlm:51111:.r92222r#  ",
"    XXXXXXX:.11111111155pwppjkkjjmBzVjjjjjjjkklm:111:.2<+O+>@e# ",
"  @<,+OOOOo:.111111115:ppwp8VjjlBzVjjjjjjjjjjjklm;11:.6,--O<6ee ",
" X<--====-+:.11111115:mpVpp88jmBkjjjjgkzkkjjjjjkzm;1:.6<,,<@r.e ",
" X,--+++++<:.1111111:zmpVpp8jmmVjjjjgVzzkkkklllllzm1:.2<<<32t.. ",
" X+-+>>>>><:.1111115zzmpzVpjmmjjjjjjVcmzkklkkkllllm1:.2<<<39y.. ",
" XO=,<<<<<<:.111111:ccmkmVmBVjjjjjjgczvvjjjjjkklzzv1:.2<<<39y.. ",
" XO-><<<<<3:.111111kccmzmVVcjjjjjjjVzvvjjpjjjkjkmmC1:.2<<<32y.. ",
" X,,<<<<<<3:.111115kccvmlVVjjjjjjjggzvjjpjjpkcjkmvC1:.2<<<<2y.. ",
" X336@3<<<3:.11111:kccmmVVww88jjjjkzvvjpjjpjkcjlmvC1:.2<<<32y.. ",
" X99rr23333:.11111VkccmlVww88wwwmklvvkkjjjpkcVjlmvC1:.2<><39y.. ",
" X##..r9292:.11115VVcmmVVww8wwwmkllv1ZZkppjVcjjzvC 1:.2<<<39y.. ",
"    #..yyyd:.1111:VcccmVVcmCCwwmlvv1ee ZApmkcjjmvC:1:.23<<39y.. ",
"     #.....:.1115kkccmlVjwwCCmmlv1eZeSZZZAmckjjmvC;1:.233369y.. ",
"      ##eee:.111:gggcmVVww8zgllvD1 eeee FGHHcjjmCv11:.r999rry.. ",
"  XX       :.111kkggmmVjww8cgllDJKZZZeZe1GHLLclmCv11:.ayyyyya.. ",
" o,,+,,<3@ :.111jgccmzVjwwwglvkHHA1ee Z1;HLLDPmCvv11:.........# ",
" ,=*===---o:.111jcgcVcVjwwwlvnw8zBA1FF1;HLLDPImCvv11:........## ",
" +**------+:.1178jcmjkklllwn8Vn88zBAAGHHLLDPIIUvvm11:.eeeeee##  ",
" +=-,>>>,+>:.117p8jjjkkkkknnnVVnwjjBBHHLLDPIIUvvmm11:.rr999999Y.",
" ,-,<<<<>><:.1117pp77kkk88nn8nwnnjkkBBLLDPIIUvvvml11:.23<>>><32.",
" ,-,<<<<<<3:.111177177jjwnnww8nnn8kkmBLDPIIUvvvllk11:.@,O---O>2.",
" ,-,>><<<<3:.11111111188jnwggkk888klTBBPIUvvvvmlkj11:.6>,,,,,39.",
" ,-+><<<<<3:.111111111f88wjjggzzzzlmmmTIUvvmmlckj811:.2<<<<<<39.",
" ,-,<<<<<<<:.1111111111f88888wjjgllllllUvmmlckj88011:.23<<<<<39.",
" ,-,<<<<<<3:.111111111111f777777788gkkkmllckj8800111:.23<<<<<3r.",
" ,-,<<<<<<3:.111111111111111fffffffffppppp8800111111:.23333332r.",
" ,-><<<<<<3:.111111111111111100011111nnnnnnn11111111:.92222229t.",
" ,-,<<<<<<3:.111111111111111111111111111111111111111:.trrrrrrta.",
" >O<3333333:.     4444444::::::::::::::::::::::::::::...........",
" 3<@2222222:....................................................",
"  2rrtttyyy.MMMM.ee........................eeee######.######### ",
" ................  X#eeeeeeeeeeeeeeeeeeeee#                     "
};
