/* XPM */
static char *_5baed0be8914ef0f48f8b9dcada9afa[] = {
/* columns rows colors chars-per-pixel */
"64 64 154 2 ",
"   c #030303",
".  c #070708",
"X  c #0B0B0B",
"o  c #120F0A",
"O  c #15120F",
"+  c #0F1011",
"@  c #161616",
"#  c #181717",
"$  c #1B1914",
"%  c #1B1B19",
"&  c #371304",
"*  c #3A1607",
"=  c #211F1C",
"-  c #24211D",
";  c #2B261F",
":  c #232323",
">  c #2A2621",
",  c #2F2A22",
"<  c #2F2F2F",
"1  c #312C25",
"2  c #382F21",
"3  c #3B3022",
"4  c #37332D",
"5  c #3B342A",
"6  c #313131",
"7  c #3B3B3B",
"8  c #421E0E",
"9  c #452111",
"0  c #433827",
"q  c #433B2E",
"w  c #4F3E2D",
"e  c #4D4233",
"r  c #514636",
"t  c #574A37",
"y  c #554938",
"u  c #5B4D3A",
"i  c #5F513D",
"p  c #63533D",
"a  c gray26",
"s  c #535353",
"d  c #575758",
"f  c #585858",
"g  c #675741",
"h  c #645B4E",
"j  c #715F46",
"k  c #765648",
"l  c #655E53",
"z  c #655F58",
"x  c #7D5D50",
"c  c #726047",
"v  c #796446",
"b  c #766349",
"n  c #7F6849",
"m  c #676056",
"M  c #6C6254",
"N  c #666159",
"B  c #746653",
"V  c #726759",
"C  c #6B6B6B",
"Z  c #727272",
"A  c gray47",
"S  c #836C4C",
"D  c #886F4E",
"F  c #8A714F",
"G  c #846F51",
"H  c #8D7554",
"J  c #907755",
"K  c #937955",
"L  c #8C6F63",
"P  c #8C7E6A",
"I  c #917569",
"U  c #9D825D",
"Y  c #A1855E",
"T  c #B58A5A",
"R  c #8D806E",
"E  c #8C8172",
"W  c #8E867B",
"Q  c #9F867B",
"!  c #A28761",
"~  c #A48A65",
"^  c #AB8D64",
"/  c #AB8F68",
"(  c #AF9167",
")  c #AC9069",
"_  c #B29266",
"`  c #B4956B",
"'  c #B7986C",
"]  c #BC9C6E",
"[  c #BB9B70",
"{  c #C5A272",
"}  c #CAA674",
"|  c #CDA976",
" . c #CFAA78",
".. c #D1AB77",
"X. c #D2AD79",
"o. c #D7B17C",
"O. c #DCB57E",
"+. c #868687",
"@. c #8B8B8B",
"#. c #969189",
"$. c gray57",
"%. c #9E9A95",
"&. c #9E9E9E",
"*. c #A48B81",
"=. c #BBA382",
"-. c #B6A49D",
";. c #B9A69E",
":. c #A2A2A2",
">. c #B9ADA9",
",. c #B8B7B6",
"<. c #BBBBBB",
"1. c #DEB781",
"2. c #DEB882",
"3. c #DDBA8B",
"4. c #C6B49B",
"5. c #E4BB83",
"6. c #E9BF85",
"7. c #C3B9B6",
"8. c #EAC086",
"9. c #ECC289",
"0. c #E4C293",
"q. c #EBC692",
"w. c #ECC896",
"e. c #ECCA9C",
"r. c #CAC1BE",
"t. c #EDCFA4",
"y. c #EFD3AC",
"u. c #E5D1B4",
"i. c #EFD5B2",
"p. c #F0D8B7",
"a. c #F0DABC",
"s. c gray78",
"d. c #CDCDCD",
"f. c #D1C8C5",
"g. c #D2CECC",
"h. c #D2D2D2",
"j. c #D8D2D0",
"k. c #DCDCDC",
"l. c #F1DCC0",
"z. c #F2E2CD",
"x. c #ECE1D2",
"c. c #EFE8DD",
"v. c #F4E9DB",
"b. c #DFDFE0",
"n. c #E3E3E3",
"m. c #ECECEC",
"M. c #F4EEE5",
"N. c #F8EFE3",
"B. c #F6F2EC",
"V. c #F7F7F7",
"C. c #FAF8F7",
"Z. c #F7F7F8",
"A. c #F7F8F8",
"S. c #FAFAFA",
/* pixels */
"V.V.V.V.V.V.V.Z.V.V.V.V.V.V.V.V.V.V.V.V.V.V.V.V.V.V.V.Z.V.V.V.V.V.V.V.V.V.V.V.V.V.V.V.V.V.V.V.V.V.V.V.V.V.V.V.V.V.V.V.V.V.V.V.V.",
"V.V.V.V.V.V.V.V.V.V.V.Z.V.V.V.V.V.V.V.V.V.V.V.V.V.V.V.V.V.V.V.V.V.V.V.V.V.V.V.V.V.V.V.V.V.V.V.V.V.V.S.V.V.V.V.V.V.V.V.V.V.V.V.V.",
"V.V.V.V.V.V.Z.V.V.V.V.V.V.V.Z.V.V.V.V.V.V.Z.V.V.V.V.V.V.V.V.V.V.V.Z.Z.V.V.V.V.V.V.V.V.V.V.V.V.V.V.V.A.A.V.V.V.V.V.V.V.V.V.V.V.V.",
"V.Z.V.V.V.V.V.V.V.V.V.V.V.V.V.V.V.V.V.V.V.V.V.Z.V.V.V.V.V.m.@.Z Z @.m.V.m.V.V.V.S.V.V.V.V.V.V.V.V.V.A.A.V.V.V.V.V.V.V.V.V.V.V.V.",
"V.V.V.V.V.V.V.V.V.V.V.V.V.V.V.Z.V.V.V.V.Z.Z.V.n.b.n.$.s s s : @ + = s s s $.n.n.n.m.S.V.A.V.V.V.V.V.V.V.V.V.V.V.V.V.V.V.V.V.V.V.",
"V.V.Z.Z.V.V.V.V.V.V.V.V.V.V.V.V.V.V.V.S.n.d.&.7 7 7 : @ o @ @ # @ @ @ @ @ = 7 7 7 &.h.n.V.V.V.A.V.V.V.V.V.V.V.V.V.V.V.V.V.V.V.V.",
"V.Z.Z.Z.V.V.V.V.V.V.Z.V.V.V.V.V.V.V.V.<.C : - @ @ @ @ @ @ @ @ @ @ @ @ @ @ @ @ @ @ : : C <.m.A.A.V.A.V.V.V.V.V.V.V.V.V.V.V.V.V.V.",
"V.Z.Z.Z.Z.V.V.V.Z.V.V.V.V.V.V.V.V.V.&.: @ @ @ # @ @ @ @ @ @ @ @ @ @ @ @ @ @ @ @ # @ @ # : :.V.A.V.V.V.V.V.V.V.V.V.V.V.V.V.V.V.V.",
"V.V.V.V.V.V.V.V.V.V.V.V.V.V.V.V.Z.m.s @ @ % = $ # @ @ @ @ @ # @ # # # # @ # @ # @ @ @ @ @ s m.A.S.V.V.V.V.V.V.V.V.V.V.V.V.V.V.V.",
"V.V.V.V.V.V.V.V.V.V.V.Z.V.V.V.V.A.:.: % , H ' T w > > % @ @ @ @ # # # @ @ # # @ % @ # # @ : :.A.A.V.V.V.V.V.V.V.V.V.V.V.V.V.V.V.",
"V.V.V.V.V.V.V.V.V.V.V.V.Z.Z.V.C.m.Z @ g } 5.9.9.X.| { i 5 q 3 @ @ @ @ @ # @ @ # # @ # # @ @ Z m.V.V.V.V.V.V.V.V.V.V.V.V.V.V.V.V.",
"V.V.V.V.V.V.V.V.V.V.V.V.V.Z.C.S.<.: ,  .9.9.9.8.8.9.9.1.O.1.{ p u e # @ @ @ # @ @ # # # @ @ : <.S.V.V.V.V.V.V.V.S.V.V.V.V.V.V.V.",
"V.V.V.V.V.V.V.V.V.V.V.V.V.V.C.m.A @ 1 X.8.8.8.8.8.8.8.9.8.8.8.6.5. .n c : # # # # @ @ @ @ @ @ A m.S.V.V.V.V.V.V.V.V.V.V.V.V.V.V.",
"V.V.V.V.V.V.V.V.V.V.V.V.V.V.C.k.4 @ n 5.8.8.8.8.8.8.8.8.8.8.8.8.9.9.9.5.^ g % # @ @ @ @ @ @ @ 6 k.S.V.V.V.S.V.V.V.V.V.V.V.V.V.S.",
"V.V.V.V.V.V.V.V.V.V.V.V.V.V.C.d.< - ' 9.8.8.8.8.8.8.8.8.8.8.8.8.9.8.8.8.9.o.^ q : @ @ @ @ # @ 6 d.A.V.V.V.V.V.V.V.V.V.V.V.V.V.V.",
"V.V.V.V.V.V.V.V.V.V.V.V.V.V.V.C @ v 5.8.8.8.6.8.8.8.8.8.8.8.8.8.8.8.8.8.8.9.8.o.H : @ @ @ @ @ @ C V.V.V.V.V.V.V.V.V.V.V.V.V.V.V.",
"V.V.V.V.V.V.V.V.V.V.V.V.V.V.m.f + n 9.8.8.8.8.8.8.8.8.8.8.8.8.8.8.8.6.8.8.8.8.9.5.H e % @ @ @ + d V.V.V.V.V.V.V.V.V.V.V.V.V.V.V.",
"S.V.V.V.V.V.V.V.V.V.V.V.V.V.V.d , ' 8.8.8.8.8.8.8.8.8.8.8.8.8.8.8.8.8.8.8.8.8.8.5.8.| r @ @ @ @ d m.V.V.V.V.V.V.V.S.V.V.V.V.V.V.",
"V.V.V.V.V.V.V.V.V.V.V.V.V.V.m.d t 8.8.8.8.8.8.8.8.8.8.8.8.8.8.8.8.8.8.8.8.8.8.8.8.8.8.{ q @ @ @ d m.V.V.V.V.V.V.V.V.V.V.V.V.V.V.",
"V.V.V.V.V.V.V.V.V.V.V.V.V.S.:.4 ` 8.8.8.8.8.8.8.8.8.8.8.8.8.8.8.8.8.8.8.8.8.8.8.8.8.8.8.] 5 @ @ : :.S.V.V.V.V.V.V.V.V.V.V.V.V.V.",
"V.V.V.V.V.V.V.S.V.V.V.V.V.S.+.;  .8.8.8.8.8.8.8.8.8.8.8.8.8.8.8.8.8.8.8.8.8.8.8.8.8.8.8.8.( 1 @ @ +.S.V.S.V.V.V.V.V.V.V.V.V.S.V.",
"V.V.V.V.V.V.V.V.V.V.V.V.V.C.@.t O.8.8.8.8.8.8.8.8.8.8.8.8.8.8.8.8.6.8.8.8.8.8.8.8.8.8.8.8.8.! > O +.S.V.V.V.V.V.V.V.V.V.V.V.V.V.",
"V.V.V.V.V.V.V.V.V.V.V.V.V.S.@.) 9.8.8.8.8.8.8.8.8.8.8.9.6.8.8.8.8.8.8.8.8.8.9.9.8.8.8.8.8.8.5.y + @.S.V.V.V.V.V.V.V.V.V.V.V.V.V.",
"V.V.V.V.V.V.V.V.V.V.V.V.V.M.=.| 8.8.8.8.8.8.8.O.O.O.O.O.8.8.8.8.6.8.8.8.8.O.O.O.O.O.8.8.8.8.8.~ - a d.S.V.V.V.V.V.V.V.V.V.V.V.V.",
"V.V.V.V.V.V.V.V.V.V.V.S.V.x.2.8.8.8.8.8.8.8.) h h h h B ..9.8.8.8.8.8.8.] h h h h M { 8.8.8.8.o.5 # <.S.V.V.V.V.V.V.V.V.V.V.V.V.",
"V.V.S.V.V.V.V.V.V.V.A.B.M.x.2.8.8.8.8.8.9.' #.k.<.>.g.d.P X.9.8.8.8.8.{ W k.r.>.f.k.E } 8.8.8.8.( 4 ,.N.B.V.V.V.V.V.V.V.V.V.V.V.",
"V.V.V.V.V.V.V.V.V.A.B.y.q.y.2.8.8.8.8.8.] W m.C.x 9 ;.S.s.R O.9.8.9.} E n.S.I 8 *.S.h.R X.8.8.8.9.~ 4.q.y.B.V.V.V.V.V.V.V.V.A.V.",
"V.V.V.V.V.V.V.V.V.V.p.8.O.5.O.8.8.8.8.8.` #.V.V.k * ;.S.h.P X.5.6.O.{ W m.S.L & Q S.b.E | 8.8.8.8.O.5.1.5.p.V.V.A.V.V.V.V.V.V.V.",
"V.V.V.V.V.V.V.V.V.m.w.O.O.5.O.8.8.8.8.8.8./ %.m.7.;.j.k.R | 5.O.5.O.8.' #.m.r.-.f.n.W { 8.8.8.8.8.O.5.O.O.w.B.V.V.V.V.V.V.V.V.V.",
"V.V.V.V.V.V.V.V.V.B.w.8.8.8.O.5.8.8.8.8.8.8.~ m N N l V { 8.5.O.6.O.8.9.` m z N N M [ 8.8.8.8.8.5.O.8.8.8.w.B.V.V.V.V.V.V.V.V.V.",
"V.V.V.V.V.V.V.V.V.B.w.8.5.8.O.5.8.8.8.8.8.8.2.X.X.X...o.8.8.5.1.8.O.5.9.5.X.X. .| o.8.8.8.8.8.8.5.1.8.5.8.w.B.A.V.V.V.V.V.V.V.V.",
"V.V.V.V.V.V.S.V.V.B.w.8.o.o.O.5.8.8.8.8.8.8.8.8.9.8.8.9.8.8.o.8.8.5.O.8.8.8.9.8.8.8.8.8.8.8.8.8.5.O.o.o.8.w.B.A.V.V.V.V.V.V.V.S.",
"V.Z.Z.Z.V.V.V.V.V.B.w.6.O.X.O.1.8.8.8.8.8.8.8.8.8.8.8.8.8.8.O.6.8.5.O.8.8.8.8.8.8.8.8.8.8.8.8.8.5.O.o.o.6.w.B.Z.Z.V.V.A.V.V.V.V.",
"V.V.Z.Z.V.V.A.V.V.V.w.6.O.O.O.5.8.8.8.8.8.8.8.8.8.8.8.8.8.5.O.6.8.5.O.8.8.8.8.8.8.8.8.8.8.8.8.8.5.O.o.O.9.w.B.Z.V.Z.V.V.V.V.V.V.",
"V.V.Z.Z.V.V.V.V.V.V.z.9.5.X.X.5.8.8.9.8.8.8.8.8.8.8.8.8.8.8.O.5.8.5.O.8.8.8.8.8.9.8.8.8.8.8.8.8.1.X.o.5.9.z.V.V.V.V.V.V.V.V.V.V.",
"V.V.Z.V.V.V.V.V.V.V.M.w.8.5.o.o.5.8.5.8.8.8.8.8.8.8.8.8.8.5.O.6.8.5.O.8.8.8.8.8.5.8.8.8.8.8.8.5.o.o.5.8.w.M.V.V.V.V.V.V.V.V.V.V.",
"V.V.V.V.V.V.V.V.V.V.V.l.6.8.6.O.5.8.8.8.8.8.8.8.8.8.8.8.5.5.O.8.8.6.O.O.O.9.9.8.8.8.8.8.8.8.8.8.O.8.8.6.a.A.A.V.V.V.V.V.V.V.V.V.",
"V.V.V.Z.V.V.V.V.V.V.Z.v.w.6.6.O.6.8.8.8.8.8.8.8.8.8.8.1.O.O.O.8.8.9.O.O.O.5.8.8.8.8.8.8.8.8.8.5.O.8.8.e.v.Z.V.V.V.V.V.V.A.V.V.V.",
"V.V.V.V.V.V.V.V.V.V.Z.Z.c.w.6.O.5.8.8.8.8.8.8.8.8.8.5.O.6.5.6.8.8.8.6.6.O.O.8.8.8.8.8.8.8.8.8.5.O.9.w.v.A.V.V.V.V.V.V.A.V.V.V.V.",
"V.V.V.V.A.V.V.V.V.V.Z.Z.V.B.i.5.1.8.8.8.8.8.8.8.8.8.8.5.O.8.8.8.8.8.9.8.O.6.8.8.8.8.8.8.8.8.8.1.O.p.N.V.A.Z.V.V.V.V.V.V.V.V.V.V.",
"V.V.V.V.Z.V.V.V.V.V.V.V.V.A.z.e.1.8.8.8.8.8.8.8.8.8.9.9.6.O.5.6.6.6.6.O.8.9.9.6.8.8.8.8.8.8.8.1.e.z.Z.Z.V.V.V.V.V.V.V.V.V.V.V.Z.",
"Z.V.V.V.V.V.V.V.V.V.V.A.V.V.V.M.3.5.8.8.8.8.8.8.8.8._ F F S v v v v v S D D } 9.6.8.8.8.8.8.5.3.N.V.Z.V.V.Z.V.V.V.V.V.V.V.V.Z.Z.",
"V.V.V.V.V.V.V.V.V.V.V.V.V.V.Z.V.u.5.9.8.8.8.8.8.8.8.p   .   .     .         K 9.6.8.8.8.8.8.5.u.V.V.V.V.V.V.V.V.V.V.V.V.V.V.Z.Z.",
"V.V.V.V.V.Z.V.V.V.V.V.V.V.V.V.A.x.2.8.8.8.8.8.8.9._ $ o     X     X     o   3 ..9.8.8.8.8.8.1.x.V.V.V.V.V.V.V.V.V.A.V.V.V.Z.Z.Z.",
"V.V.Z.V.V.V.V.V.V.V.A.V.A.V.V.A.x.1.8.8.8.8.8.8.O.D   X X . +     .   X   . O ^ 8.8.8.8.8.8.1.x.A.V.V.V.V.Z.V.V.V.V.V.V.V.V.Z.V.",
"V.V.V.V.V.V.V.V.V.V.V.V.V.V.V.A.c.0.8.8.8.8.8.8.{ $ o   . X X .           . . 0 O.8.8.8.8.8.0.v.A.V.V.V.V.V.V.V.V.V.V.V.V.V.V.V.",
"V.V.V.V.V.V.V.Z.V.V.V.V.V.V.V.V.V.p.6.8.8.8.8.8.{ o       .             X     2 O.8.8.8.8.6.p.Z.V.V.V.V.V.V.V.V.V.V.V.V.V.V.V.V.",
"V.V.V.V.V.V.V.V.V.V.V.V.V.V.V.A.A.l.8.8.8.8.8.9.O.K F F S S S S S S S S F J H Y 8.9.8.8.8.8.a.S.V.V.V.V.V.V.V.V.V.Z.Z.V.V.V.V.V.",
"V.Z.V.V.V.V.V.V.V.V.V.V.V.V.V.V.V.M.e.5.8.8.8.8.8.8.O.{ c p g g g g g g n X.O.9.8.8.8.8.5.e.M.V.V.V.V.V.V.V.V.S.V.V.V.V.V.V.V.V.",
"V.V.V.V.V.Z.V.V.V.V.V.V.V.Z.V.V.V.V.t.8.8.8.8.8.} U i j ] } } { } { { { ) p g ( X.8.8.8.8.t.V.V.V.V.V.V.V.V.V.V.V.V.V.V.V.V.V.V.",
"V.V.V.V.V.V.C.V.V.V.V.V.V.V.C.V.A.V.a.9.8.8.8.5.G H o.O.8.9.8.8.9.9.9.8.9.1. .b Y 9.8.8.8.a.V.V.V.V.A.V.V.V.V.V.V.V.V.V.V.V.V.V.",
"V.V.V.V.V.V.V.V.C.Z.V.V.V.V.V.V.A.A.M.q.8.8.8.8.8.8.8.8.8.8.8.8.8.8.8.8.8.8.9.5.8.8.8.8.q.N.V.V.V.V.V.V.V.V.V.V.V.V.V.V.V.V.V.V.",
"Z.V.V.V.V.V.V.V.V.V.V.V.V.V.V.V.V.V.B.p.8.8.8.8.8.8.8.8.8.8.8.8.8.8.8.8.8.5.8.8.8.8.8.8.p.V.A.V.V.V.V.V.V.V.V.V.V.V.V.V.V.V.V.V.",
"V.V.Z.V.V.V.V.V.V.V.V.V.V.V.V.V.V.V.S.v.9.8.8.8.8.8.8.8.8.8.8.8.8.8.8.8.8.8.8.8.8.8.8.9.v.A.V.V.V.V.V.V.V.V.A.V.Z.V.V.V.A.V.V.V.",
"V.V.V.V.V.V.V.V.V.V.V.V.V.V.V.V.V.V.V.V.l.9.8.8.8.8.8.8.8.8.8.8.8.8.8.8.8.8.8.8.8.8.9.l.B.V.A.V.V.V.V.V.V.V.V.V.Z.Z.V.A.V.V.V.V.",
"V.V.V.V.V.V.V.Z.V.V.V.C.V.V.V.V.V.V.V.V.V.p.8.8.8.8.8.8.8.8.5.8.8.8.8.8.8.8.8.8.8.9.i.V.V.V.V.V.V.V.V.A.V.V.V.V.Z.Z.V.V.V.V.V.V.",
"V.V.V.V.V.V.V.V.V.V.V.V.V.V.V.V.Z.V.Z.V.Z.B.y.8.8.8.8.8.8.8.8.8.8.8.8.8.8.8.8.8.8.i.B.A.A.A.V.V.V.V.V.V.V.V.V.V.Z.Z.V.V.V.V.V.V.",
"V.V.V.V.V.V.V.V.V.V.V.V.V.V.V.V.Z.V.V.V.Z.Z.B.y.8.8.8.8.8.8.8.8.8.8.8.8.8.8.8.8.t.B.S.A.A.A.V.V.V.V.V.V.V.V.V.V.V.V.V.V.V.Z.V.V.",
"V.V.V.V.V.V.V.V.V.V.V.V.V.V.V.V.V.V.V.V.Z.V.Z.N.x.e.q.9.6.6.8.8.8.8.8.8.8.9.q.t.N.S.V.V.V.V.V.V.V.Z.V.C.V.V.Z.V.V.V.V.V.Z.V.V.V.",
"V.V.V.V.S.V.V.V.V.V.V.V.V.V.V.V.V.V.V.V.Z.V.V.Z.V.B.N.y.e.e.e.8.8.8.e.e.e.a.M.B.V.V.V.V.V.V.V.V.V.V.V.V.Z.V.V.V.Z.V.V.V.V.V.V.V.",
"V.V.V.V.V.V.V.V.V.V.V.V.V.V.V.V.V.V.V.V.V.V.V.V.V.V.V.V.B.V.M.y.y.p.B.V.V.V.V.V.V.V.V.V.V.V.V.V.V.V.V.C.V.V.V.V.V.V.V.V.V.V.V.V.",
"V.V.V.V.V.V.V.V.V.V.V.V.V.V.V.V.V.V.V.V.V.V.V.V.V.V.V.V.V.V.V.V.V.V.V.V.V.V.V.V.V.V.V.V.V.V.V.V.V.V.V.V.V.V.V.V.V.Z.V.V.V.V.V.V.",
"V.V.V.V.V.V.V.V.V.S.V.V.V.V.V.V.V.V.V.V.V.V.V.V.V.V.V.V.V.V.V.V.V.V.V.V.V.V.V.V.V.V.V.V.C.V.V.V.V.V.V.V.V.V.V.V.V.V.V.V.V.V.V.V.",
"V.V.V.V.V.V.V.V.V.V.C.V.V.V.V.V.V.V.V.V.V.V.V.V.V.V.V.V.V.V.V.V.V.V.V.V.V.V.V.V.V.V.V.V.V.V.V.V.V.V.V.V.Z.V.V.V.V.V.V.V.V.V.Z.V."
};
